<svg xmlns="http://www.w3.org/2000/svg" xmlns:xlink="http://www.w3.org/1999/xlink" width="1000" zoomAndPan="magnify" viewBox="0 0 750 749.999995" height="1000" preserveAspectRatio="xMidYMid meet" version="1.0"><defs><clipPath id="id1"><path d="M 195.5625 200.148438 L 357.765625 200.148438 L 357.765625 668.742188 L 195.5625 668.742188 Z M 195.5625 200.148438 " clip-rule="nonzero"/></clipPath><clipPath id="id2"><path d="M 92.382812 486.449219 L 357.578125 486.449219 L 357.578125 669.253906 L 92.382812 669.253906 Z M 92.382812 486.449219 " clip-rule="nonzero"/></clipPath><clipPath id="id3"><path d="M 195.355469 75.003906 L 357.5625 75.003906 L 357.5625 180.566406 L 195.355469 180.566406 Z M 195.355469 75.003906 " clip-rule="nonzero"/></clipPath><clipPath id="id4"><path d="M 390.578125 372.453125 L 655.769531 372.453125 L 655.769531 671.117188 L 390.578125 671.117188 Z M 390.578125 372.453125 " clip-rule="nonzero"/></clipPath><clipPath id="id5"><path d="M 390.578125 75 L 655.769531 75 L 655.769531 211.457031 L 390.578125 211.457031 Z M 390.578125 75 " clip-rule="nonzero"/></clipPath><clipPath id="id6"><path d="M 551.597656 198.359375 L 657.160156 198.359375 L 657.160156 669.527344 L 551.597656 669.527344 Z M 551.597656 198.359375 " clip-rule="nonzero"/></clipPath><clipPath id="id7"><path d="M 386 182 L 618 182 L 618 380 L 386 380 Z M 386 182 " clip-rule="nonzero"/></clipPath><clipPath id="id8"><path d="M 456.734375 159.058594 L 617.808594 220.804688 L 547.769531 403.515625 L 386.691406 341.769531 Z M 456.734375 159.058594 " clip-rule="nonzero"/></clipPath><clipPath id="id9"><path d="M 390.578125 338.503906 L 503.863281 338.503906 L 503.863281 619.148438 L 390.578125 619.148438 Z M 390.578125 338.503906 " clip-rule="nonzero"/></clipPath><clipPath id="id10"><path d="M 377.703125 76.699219 L 390.578125 76.699219 L 390.578125 668.878906 L 377.703125 668.878906 Z M 377.703125 76.699219 " clip-rule="nonzero"/></clipPath><clipPath id="id11"><path d="M 656.375 192.636719 L 750 192.636719 L 750 722.136719 L 656.375 722.136719 Z M 656.375 192.636719 " clip-rule="nonzero"/></clipPath></defs><rect x="-75" width="900" fill="#ffffff" y="-74.999999" height="899.999994" fill-opacity="1"/><rect x="-75" width="900" fill="#ffffff" y="-74.999999" height="899.999994" fill-opacity="1"/><rect x="-75" width="900" fill="#3f4652" y="-74.999999" height="899.999994" fill-opacity="1"/><g clip-path="url(#id1)"><path fill="#aa956f" d="M 195.5625 200.164062 L 357.765625 200.164062 L 357.765625 668.730469 L 195.5625 668.730469 L 195.5625 200.164062 " fill-opacity="1" fill-rule="nonzero"/></g><g clip-path="url(#id2)"><path fill="#aa956f" d="M 357.578125 486.453125 L 357.578125 669.25 L 92.382812 669.25 L 92.382812 486.453125 L 357.578125 486.453125 " fill-opacity="1" fill-rule="nonzero"/></g><g clip-path="url(#id3)"><path fill="#aa956f" d="M 357.546875 75.003906 L 357.546875 180.566406 L 195.367188 180.566406 L 195.367188 75.003906 L 357.546875 75.003906 " fill-opacity="1" fill-rule="nonzero"/></g><g clip-path="url(#id4)"><path fill="#aa956f" d="M 390.59375 372.453125 L 655.753906 372.453125 L 655.753906 671.117188 L 390.59375 671.117188 L 390.59375 372.453125 " fill-opacity="1" fill-rule="nonzero"/></g><g clip-path="url(#id5)"><path fill="#aa956f" d="M 390.59375 75 L 655.753906 75 L 655.753906 211.457031 L 390.59375 211.457031 L 390.59375 75 " fill-opacity="1" fill-rule="nonzero"/></g><g clip-path="url(#id6)"><path fill="#aa956f" d="M 551.597656 198.390625 L 657.160156 198.390625 L 657.160156 669.496094 L 551.597656 669.496094 L 551.597656 198.390625 " fill-opacity="1" fill-rule="nonzero"/></g><g clip-path="url(#id7)"><g clip-path="url(#id8)"><path fill="#aa956f" d="M 518.828125 182.878906 L 617.800781 220.820312 L 485.671875 379.691406 L 386.699219 341.75 L 518.828125 182.878906 " fill-opacity="1" fill-rule="nonzero"/></g></g><g clip-path="url(#id9)"><path fill="#aa956f" d="M 390.578125 338.503906 L 503.863281 338.503906 L 503.863281 619.148438 L 390.578125 619.148438 L 390.578125 338.503906 " fill-opacity="1" fill-rule="nonzero"/></g><g clip-path="url(#id10)"><path fill="#3f4652" d="M 377.703125 76.699219 L 390.578125 76.699219 L 390.578125 668.878906 L 377.703125 668.878906 L 377.703125 76.699219 " fill-opacity="1" fill-rule="nonzero"/></g><g clip-path="url(#id11)"><path fill="#3f4652" d="M 656.375 192.636719 L 881.375 192.636719 L 881.375 722.136719 L 656.375 722.136719 L 656.375 192.636719 " fill-opacity="1" fill-rule="nonzero"/></g></svg>